<svg width="400" height="400" viewBox="0 0 5410 5445" fill="none" xmlns="http://www.w3.org/2000/svg">
<circle cx="5157" cy="4036" r="93" fill="white" stroke="black" stroke-width="30"></circle>
<circle cx="5157" cy="3718" r="93" fill="white" stroke="black" stroke-width="30"></circle>
<line x1="62.998" y1="583.998" x2="62.998" y2="1630.89" stroke="black" stroke-width="22"></line>
<circle cx="61.4975" cy="1642.39" r="25.4975" fill="#050505"></circle>
<circle cx="60.4975" cy="584.497" r="25.4975" fill="#050505"></circle>
<line x1="63.998" y1="1641.89" x2="63.998" y2="2688.79" stroke="black" stroke-width="22"></line>
<circle cx="62.4975" cy="2700.29" r="25.4975" fill="#050505"></circle>
<circle cx="61.4975" cy="1642.39" r="25.4975" fill="#050505"></circle>
<line x1="5340" y1="1707.78" x2="5340" y2="2754.78" stroke="black" stroke-width="22"></line>
<circle cx="5338.5" cy="2766.28" r="25.5" fill="#050505"></circle>
<circle cx="5337.5" cy="1708.28" r="25.5" fill="#050505"></circle>
<line x1="62.998" y1="2699.79" x2="62.998" y2="3746.69" stroke="black" stroke-width="22"></line>
<circle cx="61.4975" cy="3758.18" r="25.4975" fill="#050505"></circle>
<circle cx="60.4975" cy="2700.29" r="25.4975" fill="#050505"></circle>
<line x1="5338" y1="2765.78" x2="5338" y2="3812.78" stroke="black" stroke-width="22"></line>
<circle cx="5336.5" cy="3824.28" r="25.5" fill="#050505"></circle>
<circle cx="5335.5" cy="2766.28" r="25.5" fill="#050505"></circle>
<line x1="64.998" y1="3757.68" x2="64.998" y2="4804.58" stroke="black" stroke-width="22"></line>
<circle cx="63.4975" cy="4816.08" r="25.4975" fill="#050505"></circle>
<circle cx="62.4975" cy="3758.18" r="25.4975" fill="#050505"></circle>
<line x1="5339" y1="3823.78" x2="5339" y2="4870.78" stroke="black" stroke-width="22"></line>
<circle cx="5337.5" cy="4882.28" r="25.5" fill="#050505"></circle>
<circle cx="5336.5" cy="3824.28" r="25.5" fill="#050505"></circle>
<line x1="76.5892" y1="4817.09" x2="1123.39" y2="4831.44" stroke="black" stroke-width="22"></line>
<circle cx="1134.86" cy="4833.09" r="25.4975" transform="rotate(-89.215 1134.86 4833.09)" fill="#050505"></circle>
<circle cx="77.0553" cy="4819.6" r="25.4975" transform="rotate(-89.215 77.0553 4819.6)" fill="#050505"></circle>
<line x1="4278.38" y1="4866.12" x2="5325.28" y2="4880.46" stroke="black" stroke-width="22"></line>
<circle cx="5336.76" cy="4882.12" r="25.5" transform="rotate(-89.215 5336.76 4882.12)" fill="#050505"></circle>
<circle cx="4278.85" cy="4868.62" r="25.5" transform="rotate(-89.215 4278.85 4868.62)" fill="#050505"></circle>
<line x1="3220.38" y1="4855.12" x2="4267.28" y2="4869.46" stroke="black" stroke-width="22"></line>
<circle cx="4278.76" cy="4871.12" r="25.5" transform="rotate(-89.215 4278.76 4871.12)" fill="#050505"></circle>
<circle cx="3220.85" cy="4857.62" r="25.5" transform="rotate(-89.215 3220.85 4857.62)" fill="#050505"></circle>
<line x1="2162.38" y1="4841.12" x2="3209.28" y2="4855.46" stroke="black" stroke-width="22"></line>
<circle cx="3220.76" cy="4857.12" r="25.5" transform="rotate(-89.215 3220.76 4857.12)" fill="#050505"></circle>
<circle cx="2162.85" cy="4843.62" r="25.5" transform="rotate(-89.215 2162.85 4843.62)" fill="#050505"></circle>
<line x1="1120.1" y1="598.543" x2="73.2718" y2="586.425" stroke="black" stroke-width="22"></line>
<circle cx="61.7911" cy="584.791" r="25.4975" transform="rotate(90.6633 61.7911 584.791)" fill="#050505"></circle>
<circle cx="1119.63" cy="596.037" r="25.4975" transform="rotate(90.6633 1119.63 596.037)" fill="#050505"></circle>
<line x1="2177.99" y1="613.542" x2="1131.17" y2="601.423" stroke="black" stroke-width="22"></line>
<circle cx="1119.69" cy="599.789" r="25.4975" transform="rotate(90.6633 1119.69 599.789)" fill="#050505"></circle>
<circle cx="2177.52" cy="611.035" r="25.4975" transform="rotate(90.6633 2177.52 611.035)" fill="#050505"></circle>
<line x1="3235.89" y1="625.541" x2="2189.06" y2="613.422" stroke="black" stroke-width="22"></line>
<circle cx="2177.58" cy="611.788" r="25.4975" transform="rotate(90.6633 2177.58 611.788)" fill="#050505"></circle>
<circle cx="3235.42" cy="623.034" r="25.4975" transform="rotate(90.6633 3235.42 623.034)" fill="#050505"></circle>
<line x1="4292.78" y1="638.539" x2="3245.96" y2="626.421" stroke="black" stroke-width="22"></line>
<circle cx="3234.48" cy="624.787" r="25.4975" transform="rotate(90.6633 3234.48 624.787)" fill="#050505"></circle>
<circle cx="4292.31" cy="636.033" r="25.4975" transform="rotate(90.6633 4292.31 636.033)" fill="#050505"></circle>
<line x1="5350.68" y1="648.538" x2="4303.85" y2="636.42" stroke="black" stroke-width="22"></line>
<circle cx="4292.37" cy="634.786" r="25.4975" transform="rotate(90.6633 4292.37 634.786)" fill="#050505"></circle>
<circle cx="5350.21" cy="646.032" r="25.4975" transform="rotate(90.6633 5350.21 646.032)" fill="#050505"></circle>
<line x1="5344.37" y1="1721.24" x2="5359.89" y2="674.352" stroke="black" stroke-width="22"></line>
<circle cx="5361.56" cy="662.875" r="25.5" transform="rotate(-179.15 5361.56 662.875)" fill="#050505"></circle>
<circle cx="5346.88" cy="1720.77" r="25.5" transform="rotate(-179.15 5346.88 1720.77)" fill="#050505"></circle>
<line x1="1137.75" y1="4832.95" x2="2010.66" y2="5067.93" stroke="black" stroke-width="22"></line>
<path d="M1746.5 3610.28V3737.78" stroke="black"></path>
<path d="M5134 4035.78L1628.1 3978.17C1598.08 3977.67 1574 3953.2 1574 3923.17V2627.53C1574 2596.86 1599.08 2572.12 1629.74 2572.53L4884.24 2616.54C4914.33 2616.95 4938.5 2641.45 4938.5 2671.54V3241.78" stroke="#817A7A" stroke-width="33"></path>
<path d="M5134 3710.78L2018.36 3646.39C1988.44 3645.77 1964.5 3621.33 1964.5 3591.4V2933.71C1964.5 2902.97 1989.69 2878.2 2020.42 2878.71L4624.42 2922.37C4654.43 2922.87 4678.5 2947.35 4678.5 2977.36V3276.88C4678.5 3307.8 4653.03 3332.64 4622.12 3331.86L2582.5 3280.78" stroke="#8E7E7E" stroke-width="33"></path>
<circle cx="5157" cy="4376" r="93" fill="white" stroke="black" stroke-width="30"></circle>
<circle cx="5157" cy="4376" r="93" fill="white" stroke="black" stroke-width="30"></circle>
<circle class="well" id="well_42" cx="473.264" cy="2569.26" r="55.5" transform="rotate(53.526 473.264 2569.26)" fill="white" stroke="#0500FF" stroke-width="22"></circle>
<circle class="well" id="well_27" cx="459.264" cy="3477.26" r="55.5" transform="rotate(53.526 459.264 3477.26)" fill="white" stroke="#0500FF" stroke-width="22"></circle>
<circle class="well" id="well_987" cx="277.264" cy="119.264" r="55.5" transform="rotate(53.526 277.264 119.264)" fill="white" stroke="#0500FF" stroke-width="22"></circle>
<circle class="well" id="well_29" cx="459.264" cy="3679.26" r="55.5" transform="rotate(53.526 459.264 3679.26)" fill="white" stroke="#0500FF" stroke-width="22"></circle>
<circle class="well" id="well_9" cx="3382.26" cy="4161.26" r="55.5" transform="rotate(53.526 3382.26 4161.26)" fill="white" stroke="#0500FF" stroke-width="22"></circle>
<circle class="well" id="well_11" cx="4397.26" cy="3860.26" r="55.5" transform="rotate(53.526 4397.26 3860.26)" fill="white" stroke="#0500FF" stroke-width="22"></circle>
<circle class="well" id="well_1" cx="4411.26" cy="3076.26" r="55.5" transform="rotate(53.526 4411.26 3076.26)" fill="white" stroke="#0500FF" stroke-width="22"></circle>
<circle class="well" id="well_12" cx="4398.26" cy="2403.26" r="55.5" transform="rotate(53.526 4398.26 2403.26)" fill="white" stroke="#0500FF" stroke-width="22"></circle>
<circle class="well" id="well_15" cx="3382.26" cy="3466.26" r="55.5" transform="rotate(53.526 3382.26 3466.26)" fill="white" stroke="#0500FF" stroke-width="22"></circle>
<circle class="well" id="well_1093" cx="3400.26" cy="2747.26" r="55.5" transform="rotate(53.526 3400.26 2747.26)" fill="white" stroke="#0500FF" stroke-width="22"></circle>

<circle cx="453.5" cy="3901.5" r="87.7663" transform="rotate(30.9531 453.5 3901.5)" fill="white" stroke="black" stroke-width="22"></circle>
<path d="M349.189 3810.56L555.633 3997.69" stroke="black" stroke-width="15"></path>
<path d="M444.473 3909.04L557.68 3817.98" stroke="black" stroke-width="15"></path>
<path d="M464.293 3892.24L349.189 3990.27" stroke="black" stroke-width="15"></path>
<circle cx="411" cy="864" r="90.3175" transform="rotate(30.9531 411 864)" fill="white" stroke="black" stroke-width="22"></circle>
<path d="M303.996 770.707L515.773 962.677" stroke="black" stroke-width="15"></path>
<path d="M401.74 871.74L517.872 778.325" stroke="black" stroke-width="15"></path>
<path d="M422.073 854.504L303.996 955.059" stroke="black" stroke-width="15"></path>
<circle cx="1747" cy="1352" r="91.7753" transform="rotate(30.9531 1747 1352)" fill="white" stroke="black" stroke-width="22"></circle>
<path d="M1638.46 1257.36L1853.28 1452.1" stroke="black" stroke-width="15"></path>
<path d="M1737.61 1359.85L1855.41 1265.09" stroke="black" stroke-width="15"></path>
<path d="M1758.23 1342.37L1638.46 1444.37" stroke="black" stroke-width="15"></path>
<circle cx="2715.5" cy="1172.5" r="90.6819" transform="rotate(30.9531 2715.5 1172.5)" fill="white" stroke="black" stroke-width="22"></circle>
<path d="M2608.11 1078.87L2820.65 1271.53" stroke="black" stroke-width="15"></path>
<path d="M2706.21 1180.27L2822.76 1086.52" stroke="black" stroke-width="15"></path>
<path d="M2726.61 1162.97L2608.11 1263.89" stroke="black" stroke-width="15"></path>
<circle cx="5036.5" cy="1154.5" r="93.5976" transform="rotate(30.9531 5036.5 1154.5)" fill="white" stroke="black" stroke-width="22"></circle>
<path d="M4926.03 1058.19L5144.66 1256.37" stroke="black" stroke-width="15"></path>
<path d="M5026.94 1162.49L5146.83 1066.05" stroke="black" stroke-width="15"></path>
<path d="M5047.93 1144.7L4926.03 1248.51" stroke="black" stroke-width="15"></path>
<ellipse cx="1113" cy="4814" rx="60" ry="66" fill="black"></ellipse>
<ellipse cx="76" cy="4794" rx="60" ry="66" fill="black"></ellipse>
<ellipse cx="60" cy="3747" rx="60" ry="66" fill="black"></ellipse>
<ellipse cx="63" cy="2689" rx="60" ry="66" fill="black"></ellipse>
<ellipse cx="63" cy="1642" rx="60" ry="66" fill="black"></ellipse>
<ellipse cx="73" cy="610" rx="60" ry="66" fill="black"></ellipse>
<ellipse cx="1142" cy="590" rx="60" ry="66" fill="black"></ellipse>
<ellipse cx="2178" cy="612" rx="60" ry="66" fill="black"></ellipse>
<ellipse cx="3224" cy="628" rx="60" ry="66" fill="black"></ellipse>
<ellipse cx="4294" cy="646" rx="60" ry="66" fill="black"></ellipse>
<ellipse cx="5350" cy="677" rx="60" ry="66" fill="black"></ellipse>
<ellipse cx="5338" cy="1708" rx="60" ry="66" fill="black"></ellipse>
<ellipse cx="5338" cy="2765" rx="60" ry="66" fill="black"></ellipse>
<ellipse cx="5338" cy="3843" rx="60" ry="66" fill="black"></ellipse>
<ellipse cx="5321" cy="4852" rx="60" ry="66" fill="black"></ellipse>
<ellipse cx="4267" cy="4883" rx="60" ry="66" fill="black"></ellipse>
<ellipse cx="3221" cy="4866" rx="60" ry="66" fill="black"></ellipse>
<ellipse cx="2163" cy="4852" rx="60" ry="66" fill="black"></ellipse>

<path d="M5179.5 4387.28L1180.09 4349.17C1138.17 4348.77 1117.2 4348.57 1103.33 4336.6C1101.36 4334.9 1099.52 4333.05 1097.84 4331.06C1086 4317.08 1086 4296.11 1086 4254.18V2361.71C1086 2319.03 1086 2297.7 1098.12 2283.63C1099.84 2281.63 1101.72 2279.77 1103.73 2278.07C1117.92 2266.09 1139.25 2266.3 1181.93 2266.71L5081.5 2304.78" stroke="#958B8B" stroke-width="33"></path>

</svg>


