    <svg className="svg_well" width="50" height="744" viewBox="0 0 50 716" fill="none" xmlns="http://www.w3.org/2000/svg">
<g filter="url(#filter0_b_39_6)">
<path d="M4 0.5H46C47.933 0.5 49.5 2.067 49.5 4V114C49.5 115.933 47.933 117.5 46 117.5H4C2.067 117.5 0.5 115.933 0.5 114V4C0.5 2.067 2.067 0.5 4 0.5Z" stroke="#266BF1"/>
<path d="M4 0.5H46C47.933 0.5 49.5 2.067 49.5 4V114C49.5 115.933 47.933 117.5 46 117.5H4C2.067 117.5 0.5 115.933 0.5 114V4C0.5 2.067 2.067 0.5 4 0.5Z" stroke="#565252" stroke-opacity="0.2"/>
</g>
<line x1="25.5" y1="22" x2="25.5" y2="706" stroke="black"/>
<line x1="23" y1="127.5" x2="28" y2="127.5" stroke="black"/>
<line x1="23" y1="174.5" x2="28" y2="174.5" stroke="black"/>
<line x1="23" y1="240.5" x2="28" y2="240.5" stroke="black"/>
<line x1="23" y1="305.5" x2="28" y2="305.5" stroke="black"/>
<path d="M28 305.5H23" stroke="black"/>
<path d="M28 371H23" stroke="black"/>
<line x1="23" y1="78.5" x2="28" y2="78.5" stroke="black"/>
<line x1="23" y1="43.5" x2="28" y2="43.5" stroke="black"/>
<line y1="21.5" x2="49" y2="21.5" stroke="black"/>
<path d="M19 11C19 8.79087 20.7909 7 23 7H28C30.2091 7 32 8.79086 32 11V712C32 714.209 30.2091 716 28 716H23C20.7909 716 19 714.209 19 712V11Z" fill="white"/>
<path fill-rule="evenodd" clip-rule="evenodd" d="M28 8H23C21.3431 8 20 9.34315 20 11V712C20 713.657 21.3431 715 23 715H28C29.6569 715 31 713.657 31 712V11C31 9.34315 29.6569 8 28 8ZM23 7C20.7909 7 19 8.79087 19 11V712C19 714.209 20.7909 716 23 716H28C30.2091 716 32 714.209 32 712V11C32 8.79086 30.2091 7 28 7H23Z" fill="#266BF1"/>
<defs>
<filter id="filter0_b_39_6" x="-4" y="-4" width="58" height="126" filterUnits="userSpaceOnUse" color-interpolation-filters="sRGB">
<feFlood flood-opacity="0" result="BackgroundImageFix"/>
<feGaussianBlur in="BackgroundImageFix" stdDeviation="2"/>
<feComposite in2="SourceAlpha" operator="in" result="effect1_backgroundBlur_39_6"/>
<feBlend mode="normal" in="SourceGraphic" in2="effect1_backgroundBlur_39_6" result="shape"/>
</filter>
</defs>
</svg>